<svg width="24" height="25" viewBox="0 0 24 25" fill="none" xmlns="http://www.w3.org/2000/svg">
<path opacity="0.5" d="M2.5 7C2.5 5.93913 2.92143 4.92172 3.67157 4.17157C4.42172 3.42143 5.43913 3 6.5 3C7.56087 3 8.57828 3.42143 9.32843 4.17157C10.0786 4.92172 10.5 5.93913 10.5 7C10.5 8.06087 10.0786 9.07828 9.32843 9.82843C8.57828 10.5786 7.56087 11 6.5 11C5.43913 11 4.42172 10.5786 3.67157 9.82843C2.92143 9.07828 2.5 8.06087 2.5 7ZM13.5 18C13.5 16.9391 13.9214 15.9217 14.6716 15.1716C15.4217 14.4214 16.4391 14 17.5 14C18.5609 14 19.5783 14.4214 20.3284 15.1716C21.0786 15.9217 21.5 16.9391 21.5 18C21.5 19.0609 21.0786 20.0783 20.3284 20.8284C19.5783 21.5786 18.5609 22 17.5 22C16.4391 22 15.4217 21.5786 14.6716 20.8284C13.9214 20.0783 13.5 19.0609 13.5 18Z" stroke="#111C2D" stroke-opacity="0.6" stroke-width="1.5"/>
<path d="M21.5 7C21.5 5.93913 21.0786 4.92172 20.3284 4.17157C19.5783 3.42143 18.5609 3 17.5 3C16.4391 3 15.4217 3.42143 14.6716 4.17157C13.9214 4.92172 13.5 5.93913 13.5 7C13.5 8.06087 13.9214 9.07828 14.6716 9.82843C15.4217 10.5786 16.4391 11 17.5 11C18.5609 11 19.5783 10.5786 20.3284 9.82843C21.0786 9.07828 21.5 8.06087 21.5 7ZM10.5 18C10.5 16.9391 10.0786 15.9217 9.32843 15.1716C8.57828 14.4214 7.56087 14 6.5 14C5.43913 14 4.42172 14.4214 3.67157 15.1716C2.92143 15.9217 2.5 16.9391 2.5 18C2.5 19.0609 2.92143 20.0783 3.67157 20.8284C4.42172 21.5786 5.43913 22 6.5 22C7.56087 22 8.57828 21.5786 9.32843 20.8284C10.0786 20.0783 10.5 19.0609 10.5 18Z" stroke="#111C2D" stroke-opacity="0.6" stroke-width="1.5"/>
</svg>
