<svg width="20" height="21" viewBox="0 0 20 21" fill="none" xmlns="http://www.w3.org/2000/svg">
<path d="M9.99935 18.8337C14.6018 18.8337 18.3327 15.1028 18.3327 10.5003C18.3327 5.89783 14.6018 2.16699 9.99935 2.16699C5.39685 2.16699 1.66602 5.89783 1.66602 10.5003C1.66602 11.8337 1.97935 13.0937 2.53518 14.2112C2.68352 14.5078 2.73268 14.847 2.64685 15.1678L2.15102 17.0228C2.10191 17.2064 2.10195 17.3997 2.15114 17.5832C2.20034 17.7668 2.29695 17.9342 2.43128 18.0686C2.56561 18.203 2.73293 18.2997 2.91645 18.349C3.09998 18.3983 3.29324 18.3985 3.47685 18.3495L5.33185 17.8528C5.65385 17.7718 5.99437 17.8112 6.28935 17.9637C7.44179 18.5375 8.71194 18.8354 9.99935 18.8337Z" stroke="#111C2D" stroke-width="1.25"/>
<path opacity="0.5" d="M6.66602 9.25H13.3327M6.66602 12.1667H11.2493" stroke="#111C2D" stroke-width="1.25" stroke-linecap="round"/>
</svg>
