<svg width="24" height="24" viewBox="0 0 24 24" fill="none" xmlns="http://www.w3.org/2000/svg">
<g clip-path="url(#clip0_114_1512)">
<path d="M12.0159 15.4612C10.0859 15.4612 8.51562 13.9223 8.51562 12.0304C8.51562 10.1385 10.0859 8.59937 12.0159 8.59937C12.2896 8.59937 12.6231 8.66672 12.601 9.01704C12.5799 9.35149 12.2769 9.37356 12.0159 9.37356C10.5127 9.37356 9.28982 10.5654 9.28982 12.0304C9.28982 13.4954 10.5127 14.687 12.0159 14.687C13.5192 14.687 14.7421 13.4952 14.7421 12.0304C14.7433 11.6071 14.6401 11.1901 14.4417 10.8163C14.417 10.7712 14.4015 10.7218 14.3962 10.6707C14.3908 10.6196 14.3956 10.568 14.4104 10.5188C14.4252 10.4697 14.4496 10.4239 14.4822 10.3843C14.5148 10.3446 14.555 10.3119 14.6004 10.2879C14.6459 10.2639 14.6956 10.2492 14.7467 10.2447C14.7979 10.2401 14.8494 10.2457 14.8983 10.2613C14.9473 10.2768 14.9926 10.302 15.0318 10.3352C15.0709 10.3684 15.103 10.4091 15.1263 10.4549C15.382 10.9407 15.5159 11.4814 15.5163 12.0304C15.5163 13.9223 13.9462 15.4612 12.0159 15.4612Z" fill="white"/>
<path d="M13.8624 9.96664C13.784 9.96664 13.7049 9.94283 13.6363 9.89348C13.5333 9.81931 13.4253 9.75225 13.3131 9.69277C13.2671 9.66963 13.2262 9.63754 13.1927 9.59838C13.1592 9.55922 13.1339 9.51377 13.1183 9.4647C13.1026 9.41564 13.0969 9.36394 13.1014 9.31263C13.106 9.26132 13.1207 9.21144 13.1448 9.16591C13.1689 9.12038 13.2018 9.08011 13.2417 9.04747C13.2815 9.01483 13.3275 8.99047 13.3769 8.97581C13.4263 8.96116 13.4781 8.95651 13.5293 8.96214C13.5805 8.96776 13.63 8.98355 13.6751 9.00857C13.8187 9.08464 13.958 9.17096 14.0892 9.2656C14.3865 9.47986 14.2294 9.96664 13.8624 9.96664ZM22.5438 5.9236L22.5301 4.24302C22.5292 4.14093 22.4881 4.04331 22.4156 3.97143C22.343 3.89954 22.2451 3.85921 22.143 3.85922H22.1397C22.0889 3.85962 22.0386 3.87004 21.9918 3.88986C21.945 3.90969 21.9025 3.93855 21.8669 3.97478C21.8312 4.01101 21.8031 4.05392 21.784 4.10104C21.7649 4.14816 21.7553 4.19858 21.7557 4.24941L21.7598 4.75941C19.4358 1.99206 15.7133 0.193604 12.1427 0.193604C8.4506 0.193604 5.03292 1.84728 2.76744 4.73018C2.73541 4.7701 2.71162 4.81598 2.69743 4.86515C2.68325 4.91432 2.67896 4.96582 2.6848 5.01666C2.69065 5.06751 2.70652 5.11668 2.7315 5.16135C2.75648 5.20602 2.79007 5.2453 2.83032 5.2769C2.87057 5.3085 2.9167 5.33181 2.96602 5.34548C3.01534 5.35914 3.06688 5.36289 3.11766 5.3565C3.16843 5.35012 3.21744 5.33373 3.26185 5.30828C3.30625 5.28283 3.34516 5.24883 3.37634 5.20825C5.49415 2.51328 8.68944 0.967797 12.1427 0.967797C15.6138 0.967797 19.2388 2.78057 21.3969 5.53999H20.3345C20.2318 5.53999 20.1333 5.58077 20.0608 5.65337C19.9882 5.72596 19.9474 5.82442 19.9474 5.92709C19.9474 6.02975 19.9882 6.12821 20.0608 6.20081C20.1333 6.2734 20.2318 6.31418 20.3345 6.31418H22.1567C22.2816 6.31399 22.5438 6.17483 22.5438 5.9236ZM23.2141 7.6967C23.1768 7.60104 23.103 7.52412 23.009 7.48285C22.915 7.44158 22.8085 7.43934 22.7128 7.47664C22.6171 7.51393 22.5402 7.58769 22.4989 7.6817C22.4577 7.77571 22.4554 7.88227 22.4927 7.97793C22.9795 9.22681 23.2283 10.5557 23.2263 11.8961C23.2263 16.1408 20.2694 20.2168 16.0563 21.9717L16.3447 21.5304C16.373 21.4878 16.3926 21.4401 16.4024 21.3899C16.4122 21.3397 16.4119 21.2881 16.4016 21.238C16.3913 21.188 16.3712 21.1404 16.3425 21.0982C16.3137 21.0559 16.2769 21.0197 16.2341 20.9918C16.1913 20.9638 16.1434 20.9446 16.0931 20.9353C16.0428 20.926 15.9912 20.9267 15.9412 20.9374C15.8913 20.9481 15.8439 20.9686 15.8019 20.9978C15.7599 21.0269 15.724 21.064 15.6965 21.1071L14.7732 22.5196C14.6447 22.7157 14.7274 22.9911 14.9411 23.0855L16.4964 23.7715C16.953 23.9718 17.2656 23.2648 16.8088 23.0631L16.1471 22.7714C18.1783 21.9649 20.0198 20.6236 21.4056 18.9244C23.1034 16.8426 24.0005 14.4124 24.0005 11.8961C24.0025 10.4595 23.7358 9.03522 23.2141 7.6967C23.7359 9.03586 23.1365 7.49754 23.2141 7.6967ZM12.602 22.8152C12.4497 22.8212 12.2966 22.8243 12.1427 22.8243C6.03125 22.8243 1.05918 17.9221 1.05918 11.8961C1.05918 10.8301 1.50724 9.4967 1.93421 8.37122L2.27563 9.12664C2.48176 9.58225 3.18647 9.26193 2.98131 8.80806L2.25957 7.21128C2.17073 7.01502 1.92628 6.92812 1.7335 7.02451L0.214342 7.78535C0.167495 7.80725 0.125513 7.83832 0.0908738 7.87672C0.0562348 7.91512 0.0296415 7.96007 0.0126643 8.00892C-0.00431298 8.05777 -0.01133 8.10953 -0.00797229 8.16113C-0.00461462 8.21274 0.0090496 8.26315 0.0322135 8.30939C0.0553774 8.35562 0.0875713 8.39675 0.126894 8.43034C0.166217 8.46393 0.211871 8.4893 0.261161 8.50495C0.310452 8.5206 0.362378 8.52621 0.413874 8.52146C0.465371 8.51671 0.515393 8.50169 0.560987 8.47728L1.18441 8.16509C0.742729 9.33606 0.28518 10.7242 0.28518 11.8959C0.28518 18.3484 5.60447 23.5981 12.1429 23.5981C12.3071 23.5981 12.4704 23.5946 12.6328 23.5882C12.6843 23.5872 12.735 23.5759 12.7821 23.5551C12.8291 23.5342 12.8716 23.5042 12.9069 23.4667C12.9422 23.4293 12.9696 23.3851 12.9877 23.3369C13.0057 23.2887 13.014 23.2374 13.0119 23.186C13.0099 23.1345 12.9976 23.084 12.9758 23.0374C12.9539 22.9908 12.923 22.949 12.8849 22.9144C12.8467 22.8799 12.802 22.8533 12.7535 22.8363C12.7049 22.8192 12.6534 22.8121 12.602 22.8152C12.8151 22.807 12.4499 22.8212 12.602 22.8152Z" fill="white"/>
<path d="M12.6196 19.7402C12.2397 19.7402 11.1134 19.7446 10.938 19.6699C10.6361 19.5414 10.3899 19.2137 10.3899 18.8777V18.1066C9.8069 17.9539 9.24888 17.7181 8.73294 17.4066L8.19101 17.9473C7.85075 18.2833 7.27069 18.227 6.94417 17.9146C6.78469 17.7619 6.16378 17.1279 6.02017 16.961C5.71398 16.6051 5.72075 16.0535 6.0554 15.7194L6.60082 15.1753C6.28185 14.6319 6.0492 14.0607 5.91682 13.4957H5.15346C4.67753 13.4957 4.28424 13.1048 4.25811 12.6331C4.24591 12.4126 4.25172 11.5233 4.25811 11.3019C4.27127 10.8457 4.64036 10.4075 5.12172 10.4075H5.89553C6.04849 9.82595 6.2846 9.26957 6.59656 8.75553L6.05559 8.21572C5.71707 7.87721 5.77572 7.29463 6.0883 6.96947C6.2414 6.81037 6.87701 6.19063 7.04404 6.0476C7.40017 5.74276 7.95178 5.74953 8.28624 6.08282L8.83243 6.62785C9.37727 6.30927 9.95017 6.07701 10.5169 5.94463V5.15243C10.5169 4.67631 10.9094 4.28437 11.3805 4.25805C11.6013 4.24585 12.4928 4.25108 12.7148 4.25805C12.9469 4.26526 13.167 4.36276 13.3283 4.5298C13.4896 4.69684 13.5793 4.92023 13.5784 5.15243V5.92353C14.1615 6.07621 14.7195 6.31198 15.2354 6.6236L15.7773 6.08282C16.1168 5.74566 16.6984 5.80392 17.0242 6.11572C17.1837 6.26843 17.8046 6.9023 17.948 7.06914C18.2542 7.42527 18.2474 7.97669 17.9126 8.31076L17.3673 8.85482C17.6863 9.39811 17.9188 9.96908 18.0513 10.5342H18.8147C19.2796 10.5342 19.6913 10.8782 19.7389 11.3489C19.7619 11.5767 19.7486 12.5005 19.742 12.7283C19.7288 13.1847 19.3601 13.6225 18.8784 13.6225H18.1046C17.9515 14.204 17.7154 14.7605 17.4035 15.2746L17.9445 15.8142C18.2832 16.153 18.2244 16.7355 17.9118 17.0607C17.7587 17.2198 17.1233 17.8393 16.956 17.9824C16.5997 18.2874 16.0485 18.281 15.7138 17.9473L15.1677 17.4023C14.6228 17.7207 14.0501 17.9531 13.4832 18.0855V18.846C13.4832 19.3024 13.0911 19.7402 12.6196 19.7402ZM11.1639 18.847C11.1722 18.8862 11.1999 18.966 11.2851 18.966H12.589C12.6287 18.9577 12.709 18.9302 12.709 18.8458V17.7681C12.7091 17.6765 12.7416 17.5878 12.8009 17.518C12.8601 17.4481 12.9422 17.4015 13.0326 17.3864C13.6924 17.2767 14.3776 17.0003 15.0142 16.5875C15.0885 16.5393 15.1771 16.5181 15.2652 16.5273C15.3532 16.5366 15.4355 16.5757 15.4982 16.6382L16.2606 17.399C16.322 17.4604 16.4042 17.4242 16.4429 17.4013L17.3704 16.5068C17.4258 16.4516 17.3923 16.3732 17.3695 16.3341L16.6351 15.6013C16.5711 15.5375 16.5315 15.4532 16.5231 15.3631C16.5147 15.2731 16.5381 15.183 16.5893 15.1084C16.9808 14.5372 17.2756 13.8439 17.4192 13.1559C17.4374 13.0688 17.485 12.9907 17.554 12.9346C17.623 12.8785 17.7092 12.8479 17.7982 12.8479H18.848C18.8875 12.8398 18.9678 12.8125 18.9678 12.7281V11.4263C18.9519 11.3479 18.9004 11.3082 18.8147 11.3082H17.7345C17.6429 11.3083 17.5542 11.2758 17.4843 11.2165C17.4143 11.1573 17.3677 11.0752 17.3526 10.9848C17.2429 10.327 16.9659 9.64372 16.5523 9.00869C16.5038 8.93423 16.4823 8.84534 16.4916 8.75695C16.5009 8.66856 16.5403 8.58604 16.6032 8.52327L17.3656 7.76243C17.4258 7.70243 17.3904 7.62134 17.3679 7.58282L16.4714 6.65747C16.4153 6.60172 16.3355 6.6354 16.2958 6.65824L15.5613 7.39121C15.4976 7.45494 15.4135 7.49436 15.3237 7.50267C15.234 7.51098 15.1441 7.48764 15.0697 7.43669C14.4974 7.04631 13.8022 6.75192 13.1122 6.6085C13.0251 6.59039 12.9468 6.54282 12.8907 6.4738C12.8345 6.40477 12.8039 6.31851 12.8038 6.22953V5.15185C12.8038 5.07734 12.7518 5.03166 12.7144 5.03166H11.4105C11.3708 5.03998 11.2905 5.06747 11.2905 5.15185V6.26127C11.2905 6.3529 11.2579 6.44154 11.1987 6.51143C11.1394 6.58132 11.0573 6.62792 10.9669 6.64295C10.3073 6.75269 9.62211 7.02889 8.98533 7.44172C8.91109 7.49002 8.8225 7.51134 8.73441 7.50211C8.64632 7.49288 8.56408 7.45365 8.50146 7.39102L7.73907 6.63037C7.67791 6.56921 7.59546 6.60521 7.55675 6.62785L6.62927 7.52243C6.57391 7.5776 6.6074 7.65598 6.63024 7.69508L7.36456 8.42805C7.42859 8.49192 7.46823 8.57619 7.47661 8.66624C7.48499 8.75629 7.46157 8.84643 7.41043 8.92101C7.01907 9.49179 6.7243 10.1853 6.58049 10.8733C6.56231 10.9604 6.51471 11.0385 6.44569 11.0946C6.37667 11.1507 6.29045 11.1813 6.20153 11.1813H5.1523C5.11262 11.1898 5.0323 11.2171 5.0323 11.3017V12.6023C5.04062 12.6416 5.0683 12.7213 5.15346 12.7213H6.23366C6.32529 12.7213 6.41395 12.7538 6.48388 12.813C6.5538 12.8723 6.60045 12.9544 6.61553 13.0448C6.72527 13.7024 7.00204 14.3859 7.41585 15.0211C7.46438 15.0955 7.48581 15.1844 7.47654 15.2728C7.46727 15.3612 7.42787 15.4437 7.36494 15.5065L6.60256 16.2671C6.54236 16.3273 6.57778 16.4084 6.60024 16.447L7.49675 17.3723C7.55288 17.4282 7.63262 17.3946 7.6723 17.3713L8.40682 16.6384C8.47064 16.5747 8.55472 16.5352 8.64452 16.5269C8.73432 16.5186 8.82419 16.542 8.89862 16.5929C9.47075 16.9835 10.1658 17.2779 10.856 17.4213C10.9431 17.4394 11.0213 17.4869 11.0775 17.556C11.1336 17.625 11.1643 17.7113 11.1643 17.8002V18.847H11.1639Z" fill="white"/>
</g>
<defs>
<clipPath id="clip0_114_1512">
<rect width="24" height="24" fill="white"/>
</clipPath>
</defs>
</svg>
