<svg width="24" height="24" viewBox="0 0 24 24" fill="none" xmlns="http://www.w3.org/2000/svg">
<g clip-path="url(#clip0_13_245)">
<path d="M16.8996 17.7749L13.2771 16.2299C13.2286 16.2093 13.1763 16.199 13.1235 16.1999C13.0708 16.2008 13.0189 16.2129 12.9711 16.2352C12.3413 16.5303 11.8343 17.0362 11.5378 17.6654C10.2874 17.2479 9.15088 16.5461 8.21754 15.6151C7.2842 14.6841 6.57951 13.5493 6.15884 12.2999C6.78736 12.0045 7.29467 11.5011 7.59509 10.8749C7.61811 10.8269 7.63062 10.7745 7.63178 10.7212C7.63295 10.6679 7.62274 10.615 7.60184 10.5659L6.04934 6.92845C6.02733 6.87779 5.99493 6.83233 5.95423 6.79499C5.91354 6.75765 5.86545 6.72928 5.81309 6.7117C5.51448 6.61304 5.20209 6.56241 4.88759 6.5617C4.09026 6.56269 3.32587 6.87987 2.76207 7.44367C2.19827 8.00747 1.88109 8.77186 1.88009 9.5692C1.86118 12.7961 3.11119 15.9013 5.36061 18.2151C7.61002 20.5289 10.6786 21.866 13.9048 21.9382C14.0188 21.9472 14.1403 21.9472 14.2543 21.9472C14.3683 21.9472 14.4906 21.9472 14.6218 21.9374C15.3502 21.8484 16.0208 21.4959 16.5072 20.9464C16.9935 20.397 17.262 19.6885 17.2618 18.9547C17.2638 18.6449 17.2155 18.3369 17.1186 18.0427C17.1063 17.9838 17.0799 17.9287 17.0418 17.8821C17.0037 17.8355 16.9549 17.7987 16.8996 17.7749ZM14.5498 21.1904C14.4546 21.1979 14.3556 21.1979 14.2551 21.1972C14.1658 21.1972 14.0563 21.1972 13.9423 21.1897C10.9094 21.1252 8.02336 19.8709 5.90693 17.6975C3.79049 15.5241 2.6133 12.6058 2.62934 9.5722C2.62956 9.22978 2.70762 8.89189 2.85762 8.58407C3.00762 8.27625 3.22564 8.00656 3.49519 7.79538C3.76474 7.58421 4.07877 7.43707 4.41355 7.3651C4.74832 7.29313 5.09507 7.29821 5.42759 7.37995L6.84284 10.6964C6.56295 11.1819 6.11333 11.5465 5.58059 11.7202C5.48784 11.7505 5.41057 11.8159 5.36519 11.9023C5.31982 11.9887 5.30992 12.0894 5.33759 12.1829C5.77476 13.6803 6.58248 15.0431 7.68603 16.1455C8.78958 17.2479 10.1533 18.0541 11.6511 18.4897C11.7448 18.5173 11.8456 18.5073 11.932 18.4618C12.0184 18.4163 12.0836 18.3388 12.1138 18.2459C12.2874 17.7132 12.655 17.2653 13.1436 16.9912L16.4436 18.3982C16.491 18.5799 16.5144 18.767 16.5133 18.9547C16.5143 19.5025 16.3154 20.0319 15.9539 20.4435C15.5924 20.8551 15.0932 21.1207 14.5498 21.1904ZM10.7143 5.53345C10.6149 5.53345 10.5195 5.57296 10.4492 5.64328C10.3789 5.71361 10.3393 5.80899 10.3393 5.90845C10.3393 6.0079 10.3789 6.10329 10.4492 6.17361C10.5195 6.24394 10.6149 6.28345 10.7143 6.28345C12.4504 6.28543 14.1147 6.976 15.3422 8.20362C16.5697 9.43125 17.2601 11.0957 17.2618 12.8317C17.2618 12.9312 17.3014 13.0265 17.3717 13.0969C17.442 13.1672 17.5374 13.2067 17.6368 13.2067C17.7363 13.2067 17.8317 13.1672 17.902 13.0969C17.9723 13.0265 18.0118 12.9312 18.0118 12.8317C18.0097 10.8969 17.2401 9.04192 15.8721 7.67373C14.504 6.30554 12.6492 5.53583 10.7143 5.53345Z" fill="white"/>
<path d="M10.7139 8.53345C11.8533 8.53484 12.9457 8.98816 13.7514 9.79396C14.557 10.5998 15.0102 11.6922 15.0114 12.8317C15.0114 12.9312 15.0509 13.0265 15.1212 13.0969C15.1915 13.1672 15.2869 13.2067 15.3864 13.2067C15.4858 13.2067 15.5812 13.1672 15.6515 13.0969C15.7219 13.0265 15.7614 12.9312 15.7614 12.8317C15.76 11.4934 15.2278 10.2103 14.2815 9.26384C13.3352 8.31744 12.0522 7.78504 10.7139 7.78345C10.6144 7.78345 10.519 7.82296 10.4487 7.89328C10.3784 7.96361 10.3389 8.05899 10.3389 8.15845C10.3389 8.2579 10.3784 8.35329 10.4487 8.42361C10.519 8.49394 10.6144 8.53345 10.7139 8.53345Z" fill="white"/>
<path d="M10.7139 10.7834C11.2568 10.7842 11.7772 11.0003 12.1611 11.3843C12.5449 11.7683 12.7608 12.2888 12.7614 12.8317C12.7614 12.9312 12.8009 13.0265 12.8712 13.0969C12.9415 13.1672 13.0369 13.2067 13.1364 13.2067C13.2358 13.2067 13.3312 13.1672 13.4015 13.0969C13.4719 13.0265 13.5114 12.9312 13.5114 12.8317C13.5106 12.0899 13.2156 11.3788 12.6912 10.8542C12.1667 10.3296 11.4556 10.0344 10.7139 10.0334C10.6144 10.0334 10.519 10.073 10.4487 10.1433C10.3784 10.2136 10.3389 10.309 10.3389 10.4084C10.3389 10.5079 10.3784 10.6033 10.4487 10.6736C10.519 10.7439 10.6144 10.7834 10.7139 10.7834Z" fill="white"/>
</g>
<defs>
<clipPath id="clip0_13_245">
<rect width="24" height="24" fill="white"/>
</clipPath>
</defs>
</svg>
