<svg width="24" height="24" viewBox="0 0 24 24" fill="none" xmlns="http://www.w3.org/2000/svg">
<g clip-path="url(#clip0_114_1483)">
<path d="M12 0C9.62663 0 7.30655 0.703788 5.33316 2.02236C3.35977 3.34094 1.8217 5.21509 0.913451 7.4078C0.00519937 9.60051 -0.232441 12.0133 0.230582 14.3411C0.693605 16.6689 1.83649 18.8071 3.51472 20.4853C5.19295 22.1635 7.33115 23.3064 9.65892 23.7694C11.9867 24.2324 14.3995 23.9948 16.5922 23.0866C18.7849 22.1783 20.6591 20.6402 21.9776 18.6668C23.2962 16.6935 24 14.3734 24 12C24 8.8174 22.7357 5.76516 20.4853 3.51472C18.2349 1.26428 15.1826 0 12 0ZM22.4775 12.3525H23.2275C23.143 15.0776 22.0685 17.6786 20.205 19.6688L19.6725 19.125C19.6389 19.0857 19.5975 19.0539 19.551 19.0314C19.5045 19.0088 19.4538 18.9962 19.4021 18.9942C19.3505 18.9922 19.299 19.0009 19.2509 19.0198C19.2028 19.0386 19.1591 19.0672 19.1225 19.1038C19.086 19.1403 19.0574 19.184 19.0385 19.2321C19.0197 19.2803 19.011 19.3318 19.013 19.3834C19.015 19.435 19.0276 19.4857 19.0501 19.5322C19.0726 19.5788 19.1045 19.6201 19.1438 19.6537L19.6913 20.2013C17.7054 22.0749 15.1037 23.159 12.375 23.25V22.4625C12.375 22.363 12.3355 22.2677 12.2652 22.1973C12.1948 22.127 12.0995 22.0875 12 22.0875C11.9005 22.0875 11.8052 22.127 11.7348 22.1973C11.6645 22.2677 11.625 22.363 11.625 22.4625V23.25C8.89676 23.1601 6.29518 22.0773 4.30876 20.205L4.87501 19.65C4.94462 19.5774 4.98255 19.4801 4.98044 19.3795C4.97833 19.279 4.93636 19.1834 4.86376 19.1138C4.82781 19.0793 4.78542 19.0522 4.73901 19.0341C4.69261 19.016 4.6431 19.0073 4.5933 19.0083C4.49273 19.0104 4.39712 19.0524 4.32751 19.125L3.78001 19.6725C1.91352 17.6821 0.836317 15.0798 0.750005 12.3525H1.50001C1.59946 12.3525 1.69484 12.313 1.76517 12.2427C1.8355 12.1723 1.87501 12.077 1.87501 11.9775C1.87501 11.878 1.8355 11.7827 1.76517 11.7123C1.69484 11.642 1.59946 11.6025 1.50001 11.6025H0.750005C0.842972 8.88229 1.9242 6.28922 3.79126 4.30875L4.31626 4.83375C4.38637 4.90785 4.48305 4.95105 4.58502 4.95386C4.687 4.95668 4.78591 4.91887 4.86001 4.84875C4.9341 4.77863 4.97731 4.68195 4.98012 4.57998C4.98293 4.47801 4.94512 4.37909 4.87501 4.305L4.35001 3.78C6.32697 1.92065 8.91267 0.843726 11.625 0.75V1.5C11.625 1.59946 11.6645 1.69484 11.7348 1.76516C11.8052 1.83549 11.9005 1.875 12 1.875C12.0995 1.875 12.1948 1.83549 12.2652 1.76516C12.3355 1.69484 12.375 1.59946 12.375 1.5V0.75C15.0924 0.836147 17.6853 1.90931 19.6688 3.76875L19.1438 4.29375C19.1045 4.32737 19.0726 4.36874 19.0501 4.41526C19.0276 4.46179 19.015 4.51246 19.013 4.56411C19.011 4.61575 19.0197 4.66725 19.0385 4.71537C19.0574 4.76349 19.086 4.8072 19.1225 4.84374C19.1591 4.88029 19.2028 4.90889 19.2509 4.92774C19.299 4.94659 19.3505 4.95529 19.4021 4.9533C19.4538 4.9513 19.5045 4.93866 19.551 4.91615C19.5975 4.89364 19.6389 4.86176 19.6725 4.8225L20.1975 4.2975C22.0712 6.27917 23.1567 8.87688 23.25 11.6025H22.5C22.4005 11.6025 22.3052 11.642 22.2348 11.7123C22.1645 11.7827 22.125 11.878 22.125 11.9775C22.125 12.077 22.1645 12.1723 22.2348 12.2427C22.3052 12.313 22.4005 12.3525 22.5 12.3525H22.4775Z" fill="white"/>
<path d="M12 20.25C9.81196 20.25 7.71354 19.3808 6.16637 17.8336C4.61919 16.2865 3.75 14.188 3.75 12C3.75 9.81196 4.61919 7.71354 6.16637 6.16637C7.71354 4.61919 9.81196 3.75 12 3.75C12.0995 3.75 12.1948 3.71049 12.2652 3.64016C12.3355 3.56984 12.375 3.47446 12.375 3.375C12.375 3.27554 12.3355 3.18016 12.2652 3.10984C12.1948 3.03951 12.0995 3 12 3C9.61305 3 7.32387 3.94821 5.63604 5.63604C3.94821 7.32387 3 9.61305 3 12C3 14.3869 3.94821 16.6761 5.63604 18.364C7.32387 20.0518 9.61305 21 12 21C12.0995 21 12.1948 20.9605 12.2652 20.8902C12.3355 20.8198 12.375 20.7245 12.375 20.625C12.375 20.5255 12.3355 20.4302 12.2652 20.3598C12.1948 20.2895 12.0995 20.25 12 20.25Z" fill="white"/>
<path d="M12.3747 10.9462V4.875C12.3747 4.77554 12.3352 4.68016 12.2649 4.60984C12.1946 4.53951 12.0992 4.5 11.9997 4.5C11.9003 4.5 11.8049 4.53951 11.7346 4.60984C11.6642 4.68016 11.6247 4.77554 11.6247 4.875V10.9462C11.4088 11.0258 11.2225 11.1697 11.0909 11.3584C10.9592 11.5472 10.8887 11.7718 10.8887 12.0019C10.8887 12.232 10.9592 12.4566 11.0909 12.6453C11.2225 12.8341 11.4088 12.9779 11.6247 13.0575V16.875C11.6247 16.9745 11.6642 17.0698 11.7346 17.1402C11.8049 17.2105 11.9003 17.25 11.9997 17.25C12.0992 17.25 12.1946 17.2105 12.2649 17.1402C12.3352 17.0698 12.3747 16.9745 12.3747 16.875V13.0575C12.5906 12.9779 12.777 12.8341 12.9086 12.6453C13.0402 12.4566 13.1108 12.232 13.1108 12.0019C13.1108 11.7718 13.0402 11.5472 12.9086 11.3584C12.777 11.1697 12.5906 11.0258 12.3747 10.9462ZM11.9997 12.375C11.9256 12.375 11.8531 12.353 11.7914 12.3118C11.7297 12.2706 11.6817 12.212 11.6533 12.1435C11.6249 12.075 11.6175 11.9996 11.6319 11.9268C11.6464 11.8541 11.6821 11.7873 11.7346 11.7348C11.787 11.6824 11.8538 11.6467 11.9266 11.6322C11.9993 11.6177 12.0747 11.6252 12.1432 11.6535C12.2118 11.6819 12.2703 11.73 12.3115 11.7917C12.3527 11.8533 12.3747 11.9258 12.3747 12C12.3747 12.0995 12.3352 12.1948 12.2649 12.2652C12.1946 12.3355 12.0992 12.375 11.9997 12.375ZM16.946 11.8538C17.0836 11.7961 17.2018 11.7 17.2863 11.577C17.3707 11.454 17.4179 11.3092 17.4222 11.16C17.4142 11.0395 17.3823 10.9219 17.3284 10.8139C17.2744 10.7059 17.1996 10.6096 17.1082 10.5308C17.0168 10.4519 16.9106 10.392 16.7959 10.3546C16.6811 10.3171 16.5601 10.3028 16.4397 10.3125C16.191 10.2938 15.9448 10.3738 15.7546 10.5352C15.5644 10.6967 15.4454 10.9265 15.4235 11.175L16.0047 11.2762C16.0422 10.9725 16.2185 10.8337 16.4247 10.8337C16.4753 10.8284 16.5264 10.8345 16.5743 10.8515C16.6222 10.8684 16.6657 10.8959 16.7016 10.9318C16.7376 10.9678 16.765 11.0113 16.782 11.0592C16.799 11.1071 16.805 11.1582 16.7997 11.2087C16.7997 11.4562 16.6347 11.6475 16.2747 11.6363L16.2035 12.1537C16.706 12.0113 16.9535 12.2512 16.9535 12.6225C16.9618 12.6897 16.9562 12.7579 16.9369 12.8228C16.9176 12.8878 16.8851 12.948 16.8415 12.9998C16.7978 13.0515 16.7439 13.0937 16.6832 13.1236C16.6224 13.1536 16.5561 13.1706 16.4885 13.1737C16.2597 13.1737 16.061 13.0238 16.0197 12.69L15.3747 12.75C15.3986 13.0166 15.5257 13.2634 15.7288 13.4378C15.9319 13.6122 16.195 13.7005 16.4622 13.6838C16.6055 13.6919 16.7489 13.6709 16.8839 13.6222C17.0188 13.5735 17.1426 13.498 17.2476 13.4003C17.3527 13.3026 17.437 13.1847 17.4953 13.0536C17.5537 12.9225 17.5849 12.781 17.5872 12.6375C17.5934 12.4513 17.5318 12.2693 17.4139 12.1251C17.2959 11.981 17.1297 11.8845 16.946 11.8538ZM19.0347 10.3125C18.1722 10.3125 17.9622 11.1262 17.9622 11.9963C17.9622 12.8663 18.1422 13.6875 19.0347 13.6875C19.9272 13.6875 20.111 12.87 20.111 12C20.111 11.13 19.9047 10.3125 19.0347 10.3125ZM19.0347 13.1625C18.611 13.1625 18.626 12.4538 18.626 12C18.626 11.5462 18.6072 10.8375 19.0347 10.8375C19.4622 10.8375 19.4472 11.5875 19.4472 12C19.4472 12.4125 19.4622 13.1625 19.0347 13.1625Z" fill="white"/>
</g>
<defs>
<clipPath id="clip0_114_1483">
<rect width="24" height="24" fill="white"/>
</clipPath>
</defs>
</svg>
