<svg xmlns="http://www.w3.org/2000/svg" width="16" height="16" viewBox="0 0 16 16" fill="none">
<defs>
  <linearGradient id="g1" x1="0%" y1="0%" x2="100%" y2="100%">
    <stop offset="0%" stop-color="#14b8a6"/>
    <stop offset="100%" stop-color="#10b981"/>
  </linearGradient>
  <linearGradient id="g2" x1="0%" y1="0%" x2="100%" y2="100%">
    <stop offset="0%" stop-color="#0f766e"/>
    <stop offset="100%" stop-color="#14b8a6"/>
  </linearGradient>
</defs>
<path d="M10.2 11.8C7.8 9.9 7.6 5.2 9.9 3.1C10.4 2.6 11 2.3 11.7 2.2C12.7 3.1 12.5 4.5 12.4 5.9C12.3 7.4 12.6 8.8 13.4 10C14.3 11.3 15.8 11.6 17 10.9C15.6 13.8 12.7 15.3 10.2 11.8Z" fill="url(#g1)"/>
<path d="M2.3 2.4C3.2 2.4 4.1 2.4 5 2.4C4.5 2.8 4.6 3.3 4.8 3.8C5.2 4.9 5.6 6 6 7.1C6.1 7.4 6.3 7.6 6.7 7.4C6.2 8.9 5.7 10.4 5.2 11.9C5 11.8 5 11.6 4.9 11.5C3.9 8.7 2.9 5.9 2 3.1C1.8 2.6 1.6 2.2 1.2 2C1.2 2 1.3 1.9 1.3 1.9C1.6 2.4 1.9 2.4 2.3 2.4Z" fill="url(#g2)"/>
<path d="M13.6 3C13.5 2.6 13.2 2.5 12.9 2.3C13 2.2 13.1 2.2 13.2 2.3C14.1 2.6 14.8 3.1 15.3 3.8C15.8 4.6 15.6 5.5 14.8 6C14.3 6.3 13.6 6.1 13.2 5.7C12.7 5.2 12.7 4.4 13.1 3.8C13.3 3.5 13.6 3.2 13.6 3Z" fill="#1f2937"/>
<path d="M6.9 2.4C7.6 2.4 8.3 2.4 9 2.4C8.3 2.7 7.8 3.2 7.4 3.8C7.3 3.1 6.9 2.6 6.2 2.4C6.4 2.4 6.7 2.4 6.9 2.4Z" fill="#1f2937"/>
</svg>
