<svg xmlns="http://www.w3.org/2000/svg" width="32" height="32" viewBox="0 0 275 188" fill="none">
<defs>
  <linearGradient id="gradient1" x1="0%" y1="0%" x2="100%" y2="100%" gradientUnits="userSpaceOnUse">
    <stop offset="0%" stop-color="#14b8a6"/>
    <stop offset="100%" stop-color="#10b981"/>
  </linearGradient>
  
  <linearGradient id="gradient2" x1="0%" y1="0%" x2="100%" y2="100%" gradientUnits="userSpaceOnUse">
    <stop offset="0%" stop-color="#0f766e"/>
    <stop offset="100%" stop-color="#14b8a6"/>
  </linearGradient>
</defs>

<path d="M166.76 156.359C125.568 131.755 120.924 69.4032 157.572 37.9775C166.354 30.4463 176.534 25.7353 187.976 23.8794C189.527 23.628 191.224 23.138 192.768 24.4174C177.954 36.9791 174.54 54.1651 173.005 72.174C171.353 91.5617 175.403 109.547 186.297 125.739C199.227 144.959 220.949 150.409 239.32 139.207C242.358 137.355 245.095 135.011 248.598 132.432C236.602 158.272 199.298 175.314 166.76 156.359Z" fill="url(#gradient1)"/>
<path d="M35.003 27.6409C47.7872 27.6406 60.072 27.6406 72.3568 27.6406C63.9805 34.0707 65.9451 41.5134 68.8218 49.4677C74.7558 65.8761 80.386 82.396 85.9935 98.9201C87.5385 103.473 89.8905 105.813 96.2627 102.967C88.2307 125.22 80.6279 146.285 72.9959 167.429C70.3421 166.325 70.3922 164.23 69.8269 162.607C55.9327 122.731 42.0368 82.8554 28.2989 42.9254C26.2825 37.0645 23.7167 31.8877 17.7773 28.9785C17.8748 28.5327 17.9722 28.0869 18.0697 27.6412C23.5476 27.6412 29.0256 27.6412 35.003 27.6409Z" fill="url(#gradient2)"/>
<path d="M217.752 34.6102C216.433 29.2123 211.529 28.1912 207.891 25.7454C209.335 24.0954 210.565 25.1409 211.726 25.4684C225.638 29.3894 237.358 36.6555 245.445 48.8233C253.983 61.6718 250.27 76.9214 237.578 82.7651C228.833 86.791 218.178 84.5914 212.05 77.4955C205.329 69.7139 204.763 59.3718 210.384 50.7306C213.564 45.8426 218.899 41.9188 217.752 34.6102Z" fill="#1f2937"/>
<path d="M106.073 27.6486C117.192 27.6487 127.825 27.6487 138.457 27.6487C127.595 32.5374 120.096 40.4827 114.569 51.0437C113.109 39.6795 107.663 31.9395 96.5 28.8804C96.5467 28.4698 96.5934 28.0591 96.6401 27.6484C99.6222 27.6484 102.604 27.6484 106.073 27.6486Z" fill="#1f2937"/>
</svg>
