<svg width="31" height="32" viewBox="0 0 31 32" fill="none" xmlns="http://www.w3.org/2000/svg">
<path d="M2.00049 19.5C2.00049 14.786 2.00049 12.429 3.46449 10.964C4.93049 9.5 7.28649 9.5 12.0005 9.5C16.7145 9.5 19.0715 9.5 20.5355 10.964C22.0005 12.43 22.0005 14.786 22.0005 19.5C22.0005 24.214 22.0005 26.571 20.5355 28.035C19.0725 29.5 16.7145 29.5 12.0005 29.5C7.28649 29.5 4.92949 29.5 3.46449 28.035C2.00049 26.572 2.00049 24.214 2.00049 19.5Z" stroke="#111C2D" stroke-opacity="0.6" stroke-width="1.5"/>
<path d="M2.00049 20.5H5.16049C6.06549 20.5 6.51849 20.5 6.91649 20.683C7.31449 20.866 7.60849 21.21 8.19749 21.897L8.80349 22.603C9.39249 23.29 9.68649 23.634 10.0845 23.817C10.4825 24 10.9345 24 11.8405 24H12.1605C13.0655 24 13.5185 24 13.9165 23.817C14.3145 23.634 14.6085 23.29 15.1975 22.603L15.8035 21.897C16.3925 21.21 16.6865 20.866 17.0845 20.683C17.4825 20.5 17.9345 20.5 18.8405 20.5H22.0005M8.00049 14.5H16.0005M10.0005 18H14.0005" stroke="#111C2D" stroke-opacity="0.6" stroke-width="1.5" stroke-linecap="round"/>
<rect x="15.5005" y="1" width="15" height="15" rx="7.5" fill="#00A1FF"/>
<rect x="15.5005" y="1" width="15" height="15" rx="7.5" stroke="white"/>
<path d="M23 13.1193C22.3863 13.1193 21.8409 13.0142 21.3636 12.804C20.8892 12.5937 20.5142 12.3011 20.2386 11.9261C19.963 11.5511 19.8167 11.1179 19.7997 10.6264H21.4019C21.4161 10.8622 21.4943 11.0682 21.6363 11.2443C21.7784 11.4176 21.9673 11.5526 22.2031 11.6491C22.4389 11.7457 22.7031 11.794 22.9957 11.794C23.3082 11.794 23.5852 11.7401 23.8267 11.6321C24.0681 11.5213 24.2571 11.3679 24.3934 11.1719C24.5298 10.9759 24.5965 10.75 24.5937 10.4943C24.5965 10.2301 24.5284 9.99716 24.3892 9.79545C24.25 9.59375 24.0483 9.43608 23.784 9.32244C23.5227 9.20881 23.2073 9.15199 22.838 9.15199H22.0667V7.93324H22.838C23.142 7.93324 23.4076 7.88068 23.6349 7.77557C23.865 7.67045 24.0454 7.52273 24.1761 7.33239C24.3068 7.1392 24.3707 6.91619 24.3679 6.66335C24.3707 6.41619 24.3153 6.2017 24.2017 6.01989C24.0909 5.83523 23.9332 5.69176 23.7286 5.58949C23.5269 5.48722 23.2897 5.43608 23.017 5.43608C22.75 5.43608 22.5028 5.48437 22.2755 5.58097C22.0483 5.67756 21.865 5.81534 21.7258 5.99432C21.5866 6.17045 21.5127 6.38068 21.5042 6.625H19.9829C19.9943 6.13636 20.1349 5.70739 20.4048 5.33807C20.6775 4.96591 21.0411 4.67614 21.4957 4.46875C21.9502 4.25852 22.4602 4.15341 23.0255 4.15341C23.6079 4.15341 24.1136 4.26278 24.5426 4.48153C24.9744 4.69744 25.3082 4.98864 25.544 5.35511C25.7798 5.72159 25.8977 6.12642 25.8977 6.5696C25.9005 7.06108 25.7556 7.47301 25.463 7.8054C25.1733 8.13778 24.7926 8.35511 24.321 8.45739V8.52557C24.9346 8.6108 25.4048 8.83807 25.7315 9.20739C26.061 9.57386 26.2244 10.0298 26.2215 10.5753C26.2215 11.0639 26.0823 11.5014 25.8039 11.8878C25.5284 12.2713 25.1477 12.5724 24.6619 12.7912C24.1789 13.0099 23.625 13.1193 23 13.1193Z" fill="white"/>
</svg>
