<svg width="24" height="25" viewBox="0 0 24 25" fill="none" xmlns="http://www.w3.org/2000/svg">
<path d="M21.25 12.5C21.25 14.9533 20.2754 17.306 18.5407 19.0407C16.806 20.7754 14.4533 21.75 12 21.75V23.25C17.937 23.25 22.75 18.437 22.75 12.5H21.25ZM12 21.75C9.54675 21.75 7.19397 20.7754 5.45926 19.0407C3.72455 17.306 2.75 14.9533 2.75 12.5H1.25C1.25 18.437 6.063 23.25 12 23.25V21.75ZM2.75 12.5C2.75 10.0467 3.72455 7.69397 5.45926 5.95926C7.19397 4.22455 9.54675 3.25 12 3.25V1.75C6.063 1.75 1.25 6.563 1.25 12.5H2.75ZM15.5 14.75C13.975 14.75 12.5125 14.1442 11.4341 13.0659C10.3558 11.9875 9.75 10.525 9.75 9H8.25C8.25 10.9228 9.01384 12.7669 10.3735 14.1265C11.7331 15.4862 13.5772 16.25 15.5 16.25V14.75ZM20.425 11.969C19.9136 12.8179 19.1913 13.5201 18.3284 14.0074C17.4654 14.4947 16.4911 14.7505 15.5 14.75V16.25C16.7494 16.2507 17.9778 15.9283 19.0659 15.3141C20.154 14.7 21.0648 13.815 21.71 12.745L20.425 11.969ZM9.75 9C9.74957 8.00897 10.0054 7.03467 10.4927 6.17171C10.98 5.30875 11.6822 4.58647 12.531 4.075L11.755 2.791C10.6851 3.43599 9.80011 4.34665 9.18597 5.43457C8.57184 6.52249 8.24941 7.75071 8.25 9H9.75ZM12 3.25C11.8986 3.24761 11.8022 3.20519 11.732 3.132C11.6891 3.09023 11.6604 3.036 11.65 2.977C11.646 2.946 11.648 2.856 11.755 2.791L12.531 4.075C13.034 3.771 13.196 3.214 13.137 2.776C13.075 2.321 12.717 1.75 12 1.75V3.25ZM21.71 12.745C21.644 12.852 21.554 12.854 21.523 12.85C21.464 12.8396 21.4098 12.8109 21.368 12.768C21.2948 12.6978 21.2524 12.6014 21.25 12.5H22.75C22.75 11.783 22.179 11.425 21.724 11.363C21.286 11.304 20.729 11.466 20.425 11.969L21.71 12.745Z" fill="#111C2D" fill-opacity="0.6"/>
</svg>
