<svg width="31" height="32" viewBox="0 0 31 32" fill="none" xmlns="http://www.w3.org/2000/svg">
<path d="M18.7506 17.21V16.505C18.7506 12.636 15.7266 9.5 12.0006 9.5C8.27455 9.5 5.25055 12.636 5.25055 16.505V17.21C5.25175 18.0516 5.01159 18.8758 4.55855 19.585L3.45055 21.31C2.43955 22.885 3.21155 25.026 4.97055 25.524C9.56666 26.827 14.4344 26.827 19.0306 25.524C20.7896 25.026 21.5616 22.885 20.5506 21.311L19.4426 19.586C18.9892 18.8769 18.7486 18.0527 18.7496 17.211L18.7506 17.21Z" stroke="#111C2D" stroke-opacity="0.6" stroke-width="1.5"/>
<path opacity="0.5" d="M7.50049 26.5C8.15549 28.248 9.92249 29.5 12.0005 29.5C14.0785 29.5 15.8455 28.248 16.5005 26.5M12.0005 13.5V17.5" stroke="#111C2D" stroke-opacity="0.6" stroke-width="1.5" stroke-linecap="round"/>
<rect x="15.5005" y="1" width="15" height="15" rx="7.5" fill="#FF6692"/>
<rect x="15.5005" y="1" width="15" height="15" rx="7.5" stroke="white"/>
<path d="M23.0133 13.1193C22.4451 13.1193 21.9366 13.0128 21.4877 12.7997C21.0388 12.5838 20.6823 12.2884 20.4181 11.9134C20.1567 11.5384 20.0175 11.1094 20.0005 10.6264H21.5346C21.563 10.9844 21.7178 11.277 21.9991 11.5043C22.2803 11.7287 22.6184 11.8409 23.0133 11.8409C23.3229 11.8409 23.5985 11.7699 23.84 11.6278C24.0815 11.4858 24.2718 11.2884 24.411 11.0355C24.5502 10.7827 24.6184 10.4943 24.6155 10.1705C24.6184 9.84091 24.5488 9.5483 24.4067 9.29261C24.2647 9.03693 24.0701 8.83665 23.8229 8.69176C23.5758 8.54403 23.2917 8.47017 22.9707 8.47017C22.7093 8.46733 22.4522 8.51562 22.1994 8.61506C21.9465 8.71449 21.7462 8.84517 21.5985 9.0071L20.1709 8.77273L20.6269 4.27273H25.6894V5.59375H21.9351L21.6837 7.90767H21.7349C21.8968 7.71733 22.1255 7.55966 22.4209 7.43466C22.7164 7.30682 23.0403 7.2429 23.3925 7.2429C23.9209 7.2429 24.3925 7.3679 24.8073 7.6179C25.2221 7.86506 25.5488 8.20597 25.7874 8.64062C26.0261 9.07528 26.1454 9.57244 26.1454 10.1321C26.1454 10.7088 26.0119 11.223 25.7448 11.6747C25.4806 12.1236 25.1127 12.4773 24.6411 12.7358C24.1724 12.9915 23.6297 13.1193 23.0133 13.1193Z" fill="white"/>
</svg>
