<svg width="24" height="25" viewBox="0 0 24 25" fill="none" xmlns="http://www.w3.org/2000/svg">
<path d="M10.6629 4.70738C11.9396 4.70621 13.1879 5.08346 14.25 5.79139C15.3121 6.49933 16.1402 7.50615 16.6296 8.68447C17.119 9.8628 17.2476 11.1597 16.9993 12.4111C16.7509 13.6625 16.1367 14.8122 15.2344 15.7147C14.332 16.6172 13.1821 17.232 11.9301 17.4814C10.678 17.7307 9.38006 17.6033 8.20046 17.1154C7.02085 16.6274 6.01257 15.8008 5.30316 14.7401C4.59376 13.6794 4.2151 12.4323 4.2151 11.1565C4.22284 9.44952 4.90447 7.81453 6.11183 6.60692C7.31919 5.39931 8.95471 4.71667 10.6629 4.70738ZM10.6629 3.5C9.14754 3.5 7.66618 3.94905 6.40618 4.79036C5.14618 5.63167 4.16413 6.82746 3.58421 8.22651C3.0043 9.62556 2.85256 11.165 3.1482 12.6503C3.44384 14.1355 4.17357 15.4998 5.24511 16.5705C6.31666 17.6413 7.68189 18.3705 9.16816 18.666C10.6544 18.9614 12.195 18.8098 13.595 18.2303C14.9951 17.6508 16.1917 16.6694 17.0336 15.4103C17.8755 14.1512 18.3249 12.6709 18.3249 11.1565C18.3249 9.1259 17.5176 7.17843 16.0807 5.74255C14.6439 4.30667 12.695 3.5 10.6629 3.5Z" fill="#111C2D" fill-opacity="0.6"/>
<path d="M20.8291 20.4956L16.4854 16.1255L15.6484 16.9559L19.9922 21.326C20.0467 21.381 20.1116 21.4246 20.183 21.4545C20.2545 21.4843 20.3311 21.4998 20.4086 21.5001C20.486 21.5004 20.5627 21.4854 20.6344 21.4561C20.706 21.4267 20.7712 21.3835 20.8261 21.329C20.8811 21.2745 20.9248 21.2097 20.9547 21.1383C20.9845 21.0669 21.0001 20.9903 21.0003 20.9129C21.0006 20.8355 20.9856 20.7588 20.9563 20.6872C20.9269 20.6156 20.8837 20.5505 20.8291 20.4956Z" fill="#111C2D" fill-opacity="0.6"/>
</svg>
